<svg width="26.666626" height="26.666748" viewBox="0 0 26.6666 26.6667" fill="none" xmlns="http://www.w3.org/2000/svg" xmlns:xlink="http://www.w3.org/1999/xlink">
	<desc>
			Created with Pixso.
	</desc>
	<defs/>
	<path d="M16 0L2.66663 0C1.18665 0 0 1.19995 0 2.66675L0 16L2.66663 16L2.66663 2.66675L16 2.66675L16 0ZM21.3334 5.33325L8 5.33325C6.52002 5.33325 5.33337 6.53345 5.33337 8L5.33337 21.3333L8 21.3333L8 8L21.3334 8L21.3334 5.33325ZM24 10.6667L13.3334 10.6667C11.8534 10.6667 10.6666 11.8667 10.6666 13.3333L10.6666 24C10.6666 25.4666 11.8534 26.6667 13.3334 26.6667L24 26.6667C25.4667 26.6667 26.6666 25.4666 26.6666 24L26.6666 13.3333C26.6666 11.8667 25.4667 10.6667 24 10.6667Z" fill="#000000" fill-opacity="1.000000" fill-rule="nonzero"/>
</svg>
