<svg width="26.666626" height="26.666748" viewBox="0 0 26.6666 26.6667" fill="none" xmlns="http://www.w3.org/2000/svg" xmlns:xlink="http://www.w3.org/1999/xlink">
	<desc>
			Created with Pixso.
	</desc>
	<defs/>
	<path d="M26.6666 18.6667L26.6666 2.66675C26.6666 1.19995 25.4667 0 24 0L8 0C6.53333 0 5.33337 1.19995 5.33337 2.66675L5.33337 18.6667C5.33337 20.1333 6.53333 21.3333 8 21.3333L24 21.3333C25.4667 21.3333 26.6666 20.1333 26.6666 18.6667ZM12 13.3333L14.7067 16.9468L18.6666 12L24 18.6667L8 18.6667L12 13.3333ZM0 5.33325L0 24C0 25.4666 1.19995 26.6667 2.66663 26.6667L21.3334 26.6667L21.3334 24L2.66663 24L2.66663 5.33325L0 5.33325Z" fill="#F8F200" fill-opacity="1.000000" fill-rule="nonzero"/>
</svg>
