<svg width="24.000000" height="24.000000" viewBox="0 0 24 24" fill="none" xmlns="http://www.w3.org/2000/svg" xmlns:xlink="http://www.w3.org/1999/xlink">
	<desc>
			Created with Pixso.
	</desc>
	<defs/>
	<path d="M12 0C5.37329 0 0 5.37329 0 12C0 18.6267 5.37329 24 12 24C13.1067 24 14 23.1067 14 22C14 21.48 13.8 21.0134 13.48 20.6533C13.1733 20.3066 12.9734 19.8401 12.9734 19.3333C12.9734 18.2266 13.8667 17.3333 14.9734 17.3333L17.3334 17.3333C21.0133 17.3333 24 14.3467 24 10.6667C24 4.77344 18.6267 0 12 0ZM4.66663 12C3.56006 12 2.66663 11.1067 2.66663 10C2.66663 8.89331 3.56006 8 4.66663 8C5.77332 8 6.66663 8.89331 6.66663 10C6.66663 11.1067 5.77332 12 4.66663 12ZM8.66663 6.66675C7.56006 6.66675 6.66663 5.77344 6.66663 4.66675C6.66663 3.56006 7.56006 2.66675 8.66663 2.66675C9.77332 2.66675 10.6666 3.56006 10.6666 4.66675C10.6666 5.77344 9.77332 6.66675 8.66663 6.66675ZM15.3334 6.66675C14.2267 6.66675 13.3334 5.77344 13.3334 4.66675C13.3334 3.56006 14.2267 2.66675 15.3334 2.66675C16.4399 2.66675 17.3334 3.56006 17.3334 4.66675C17.3334 5.77344 16.4399 6.66675 15.3334 6.66675ZM19.3334 12C18.2267 12 17.3334 11.1067 17.3334 10C17.3334 8.89331 18.2267 8 19.3334 8C20.4399 8 21.3334 8.89331 21.3334 10C21.3334 11.1067 20.4399 12 19.3334 12Z" fill="#000000" fill-opacity="1.000000" fill-rule="nonzero"/>
</svg>
