<svg width="56.603271" height="32.499023" viewBox="0 0 56.6033 32.499" fill="none" xmlns="http://www.w3.org/2000/svg" xmlns:xlink="http://www.w3.org/1999/xlink">
	<desc>
			Created with Pixso.
	</desc>
	<defs/>
	<path d="M34.0404 31.0015C35.8153 32 37.8611 32.499 40.1775 32.499L45.051 32.499C47.3374 32.499 49.353 32 51.0979 31.0015Q52.1704 30.3687 53.0459 29.5308Q54.3069 28.3232 55.1593 26.689C56.1219 24.813 56.6033 22.6494 56.6033 20.1982L50.4662 20.1982C50.4662 22.2261 49.9547 23.8599 48.9319 25.1006C47.9391 26.3413 46.6455 26.9614 45.051 26.9614L40.1775 26.9614C38.553 26.9614 37.2443 26.3413 36.2516 25.1006Q36.2285 25.0708 36.2058 25.041Q34.7625 23.147 34.7625 20.1528L34.7625 12.3462Q34.7625 9.43311 36.1702 7.60254Q36.2321 7.52246 36.2966 7.44385Q36.9978 6.57275 37.9061 6.09961Q38.9857 5.5376 40.358 5.5376L45.1414 5.5376Q46.5084 5.5376 47.5692 6.10742Q48.3292 6.51611 48.9319 7.2168C49.8947 8.30615 50.376 9.75879 50.376 11.5742L56.5131 11.5742Q56.5131 8.125 55.069 5.5376C54.1365 3.78271 52.8127 2.4209 51.0979 1.45264C49.3832 0.484375 47.3976 0 45.1414 0L40.358 0C38.0115 0 35.9357 0.499512 34.1306 1.49805Q33.0449 2.10889 32.1542 2.93115Q30.861 4.125 29.979 5.76465C29.0164 7.58008 28.535 9.68311 28.535 12.0737L28.535 20.4253C28.535 22.8159 29.0164 24.9341 29.979 26.7798C30.9418 28.5957 32.2955 30.0024 34.0404 31.0015ZM16.6515 0.363281L0 0.363281L0 32.1357L6.22742 32.1357L6.22742 22.105L16.2904 22.105C18.2158 22.105 19.9005 21.7417 21.3445 21.0156Q22.9 20.2173 23.9642 18.9922Q24.4128 18.4756 24.774 17.8838Q24.9597 17.5723 25.1171 17.2476Q25.9924 15.4399 25.9924 13.2085L25.9924 8.9873C25.9924 7.29248 25.6014 5.79492 24.8192 4.49365C24.037 3.16211 22.939 2.14844 21.525 1.45264Q19.4041 0.363281 16.6515 0.363281ZM18.7723 15.6597C18.1105 16.3252 17.2531 16.6582 16.2002 16.6582L6.22742 16.6582L6.22742 5.81006L16.5612 5.81006C17.5239 5.81006 18.291 6.12744 18.8625 6.76318Q19.0013 6.90283 19.1188 7.05811Q19.7651 7.91504 19.7651 9.25928L19.7651 12.936Q19.7651 14.2261 19.1794 15.1411Q19.0026 15.4175 18.7723 15.6597Z" fill="#FBF503" fill-opacity="1.000000" fill-rule="evenodd"/>
</svg>
