<svg width="168.000000" height="35.187988" viewBox="0 0 168 35.188" fill="none" xmlns="http://www.w3.org/2000/svg" xmlns:xlink="http://www.w3.org/1999/xlink">
	<desc>
			Created with Pixso.
	</desc>
	<defs>
		<clipPath id="clip17_35">
			<rect width="168.000000" height="35.187801" fill="white" fill-opacity="0"/>
		</clipPath>
	</defs>
	<rect width="168.000000" height="35.187801" fill="#FFFFFF" fill-opacity="0"/>
	<g clip-path="url(#clip17_35)">
		<rect x="-0.309692" y="0.058105" width="168.626678" height="35.324333" fill="url(#pattern_17_360)" fill-opacity="1.000000"/>
		<path d="M164.16 29.7056L164.488 29.7056L164.488 27.5503L165.263 27.5503L165.263 27.271L163.384 27.271L163.384 27.5503L164.16 27.5503L164.16 29.7056Z" fill="#FBF503" fill-opacity="1.000000" fill-rule="nonzero"/>
		<path d="M165.892 27.7275L166.545 29.7056L166.869 29.7056L167.521 27.7275L167.521 29.7056L167.792 29.7056L167.792 27.271L167.397 27.271L166.718 29.3501L166.016 27.271L165.565 27.271L165.565 29.7056L165.892 29.7056L165.892 27.7275Z" fill="#FBF503" fill-opacity="1.000000" fill-rule="nonzero"/>
		<path d="M112.027 23.8735L112.027 13.8086C112.027 11.7554 112.98 10.2852 115.013 10.2852L127.556 10.2852C127.632 10.2852 127.706 10.2085 127.706 10.1328L127.706 8.13037C127.706 8.11279 127.701 8.0957 127.695 8.0791L112.359 8.0791C109.035 8.50391 107.411 10.8325 107.411 13.8086L107.411 23.8735C107.411 25.9268 106.431 27.397 104.425 27.397L91.1793 27.397C91.1041 27.397 91.0287 27.4482 91.0287 27.5493L91.0287 29.5522C91.0287 29.6353 91.0795 29.6992 91.1389 29.7197L106.178 29.7197C110.097 29.6167 112.027 27.1011 112.027 23.8735Z" fill="#FBF503" fill-opacity="1.000000" fill-rule="nonzero"/>
		<path d="M60.4983 29.7197L64.9021 29.7197C64.9615 29.6992 65.0123 29.6353 65.0123 29.5527L65.0123 23.1382C65.0123 21.085 66.1661 19.665 67.847 19.665L85.9862 19.665C90.0756 19.665 92.0579 17.1299 92.0579 13.8086C92.0579 10.8325 90.4357 8.50391 87.11 8.0791L60.4169 8.0791C60.4092 8.0957 60.3961 8.10889 60.3961 8.13037L60.3961 10.1328C60.3961 10.2339 60.4462 10.2852 60.5464 10.2852L84.4556 10.2852C86.4879 10.2852 87.4413 11.7554 87.4413 13.8086C87.4413 15.8623 86.4879 17.333 84.4556 17.333L65.5391 17.333C62.6039 17.333 60.3961 19.8433 60.3961 23.1382L60.3961 29.5532C60.3958 29.6353 60.4312 29.6992 60.4983 29.7197Z" fill="#FBF503" fill-opacity="1.000000" fill-rule="nonzero"/>
		<path d="M127.633 27.3979L151.718 27.3979C151.792 27.3979 151.842 27.4482 151.842 27.499L151.842 29.5527C151.842 29.6543 151.919 29.7051 151.993 29.7051L156.334 29.7051C156.411 29.7051 156.484 29.6543 156.484 29.5527L156.484 27.5498C156.484 27.4736 156.561 27.3979 156.635 27.3979L160.949 27.3979C161.05 27.3979 161.1 27.3213 161.1 27.2461L161.1 25.2173C161.1 25.1411 161.05 25.0654 160.949 25.0654L156.635 25.0654C156.561 25.0654 156.484 24.9888 156.484 24.9136L156.484 10.2852C156.484 9.09131 156.043 8.33105 155.301 8.0791L154.045 8.0791C153.653 8.18018 153.228 8.36133 152.771 8.63672L126.83 24.7358C125.827 25.3691 125.475 26.0786 125.726 26.6113C125.927 27.0679 126.502 27.3979 127.633 27.3979ZM131.396 24.71L151.491 12.2119C151.618 12.1104 151.869 12.1357 151.869 12.4146L151.869 24.9136C151.869 24.9897 151.792 25.0654 151.718 25.0654L131.52 25.0654C131.346 25.0654 131.269 25.0156 131.245 24.9639C131.218 24.8623 131.268 24.7866 131.396 24.71Z" fill="#FBF503" fill-opacity="1.000000" fill-rule="nonzero"/>
		<path d="M16.8267 0C18.7836 0.366699 20.707 0.890625 22.6215 1.43652C23.7161 1.75635 24.8085 2.08691 25.8934 2.43896C27.5978 2.98486 29.2947 3.60254 30.8384 4.52393C31.5298 4.9458 32.194 5.42285 32.7615 6.00439C33.3765 6.6084 33.8799 7.3252 34.2493 8.10449C34.9224 9.51758 35.153 11.0962 35.2211 12.6479C35.2532 13.6606 35.2511 14.6821 35.0627 15.6816C34.9064 16.5503 34.6284 17.4072 34.1661 18.1616C33.7579 18.8276 33.1904 19.4043 32.5016 19.7754C31.8408 20.1338 31.0846 20.3042 30.3353 20.2891C29.1989 20.3008 28.0962 19.937 27.0763 19.4595C27.0576 16.0503 27.0732 12.6401 27.0682 9.23193C27.0613 8.61523 27.103 7.9917 26.9791 7.3833C26.892 6.91211 26.7008 6.43701 26.3324 6.1167C26.0885 5.89551 25.7719 5.77051 25.4539 5.70312C25.1322 5.6416 24.7891 5.7793 24.59 6.03857C24.2589 6.4541 24.1721 7.00635 24.1571 7.52393C24.1544 16.6504 24.1604 25.7778 24.1544 34.9038C21.7118 34.1255 19.2689 33.3467 16.8267 32.5664C16.8243 21.7109 16.8254 10.8555 16.8267 0Z" fill="#FBF503" fill-opacity="1.000000" fill-rule="nonzero"/>
		<path d="M5.84778 23.0962C9.03223 21.9629 12.2134 20.8184 15.3992 19.689C15.4043 20.9453 15.3992 22.2026 15.4012 23.4604C15.3992 23.6309 15.4099 23.8022 15.3889 23.9717C12.8708 24.8691 10.3574 25.7817 7.84204 26.6851C7.49329 26.8174 7.1355 26.9673 6.8667 27.2349C6.74133 27.3604 6.63916 27.5464 6.70764 27.7256C6.79382 27.9375 7.00891 28.0532 7.2074 28.1401C7.75928 28.3657 8.36255 28.3979 8.95044 28.4248C9.60583 28.4146 10.2643 28.3652 10.906 28.2227C11.3398 28.1367 11.7574 27.9902 12.171 27.834C13.246 27.4429 14.3209 27.0493 15.3976 26.6621C15.4053 27.7251 15.3989 28.7891 15.4009 29.8535C15.3976 30.0659 15.4106 30.2798 15.3895 30.4912C14.0674 30.73 12.7295 30.8916 11.3856 30.9136C8.67957 30.9746 5.96704 30.5537 3.39661 29.7036C2.55371 29.458 1.71594 29.1309 1.01184 28.5933C0.624268 28.2915 0.277588 27.9126 0.101196 27.4463C-0.0465088 27.0508 -0.0357666 26.5947 0.148315 26.2139C0.325684 25.8335 0.63562 25.5332 0.977051 25.2993C1.76672 24.751 2.63831 24.333 3.52087 23.96C4.2821 23.6343 5.07117 23.3804 5.84778 23.0962Z" fill="#FBF503" fill-opacity="1.000000" fill-rule="nonzero"/>
		<path d="M31.4706 21.6646C32.1927 21.5806 32.9197 21.561 33.6459 21.5347C36.0343 21.5439 38.4354 21.8423 40.7203 22.563C41.1686 22.6997 41.6029 22.8774 42.0496 23.02C42.8459 23.3125 43.6429 23.667 44.2803 24.2427C44.6631 24.5938 44.9935 25.0669 44.9978 25.6064C45.0205 26.0464 44.8228 26.4683 44.5388 26.7925C43.999 27.4009 43.2855 27.8188 42.5693 28.1836C41.8066 28.5747 40.9869 28.8267 40.1873 29.124C35.3062 30.8862 30.4243 32.6475 25.5442 34.4111C25.5432 33.0366 25.5455 31.6626 25.5432 30.2896C25.5505 30.2344 25.5209 30.1387 25.5977 30.124C29.3116 28.7964 33.0245 27.4644 36.7382 26.1323C37.2402 25.9434 37.781 25.8066 38.2069 25.4648C38.3813 25.3271 38.552 25.1079 38.4666 24.8716C38.3773 24.665 38.1642 24.5508 37.9681 24.4653C37.4122 24.2441 36.807 24.2012 36.2157 24.1846C35.29 24.1909 34.3564 24.3057 33.4758 24.604C30.8306 25.5356 28.1902 26.479 25.5442 27.4077C25.5446 25.9321 25.5432 24.457 25.5449 22.9819C27.4586 22.3066 29.4576 21.8975 31.4706 21.6646Z" fill="#FBF503" fill-opacity="1.000000" fill-rule="nonzero"/>
		<path d="M42.3214 31.8301C42.8989 31.7583 43.5023 32.0186 43.8484 32.4888C44.2262 32.9746 44.2953 33.6748 44.0284 34.23C43.7588 34.8052 43.1432 35.2085 42.5051 35.1875C41.9182 35.2007 41.3496 34.8574 41.0607 34.3481C40.7998 33.9004 40.7684 33.3267 40.9705 32.8496C41.198 32.2988 41.7332 31.8975 42.3214 31.8301ZM42.1958 32.1406C41.8724 32.2144 41.5789 32.4116 41.3857 32.6821C41.1536 33.001 41.0657 33.4224 41.1539 33.8081C41.228 34.1665 41.4535 34.4868 41.7578 34.6846C42.2266 34.9941 42.8835 34.9771 43.3323 34.6372C43.7949 34.3086 44.0146 33.6782 43.8553 33.1318C43.7571 32.7622 43.4946 32.4478 43.1638 32.2646C42.8699 32.1084 42.5192 32.0635 42.1958 32.1406Z" fill="#FBF503" fill-opacity="1.000000" fill-rule="nonzero"/>
		<path d="M41.7958 32.5356C42.0967 32.5342 42.3987 32.5352 42.7 32.5347C42.8704 32.5371 43.0581 32.5771 43.1791 32.7085C43.3003 32.8462 43.3103 33.0469 43.2769 33.2197C43.2578 33.334 43.158 33.4014 43.0854 33.481C43.1483 33.5371 43.2291 33.5898 43.2441 33.6812C43.2789 33.8564 43.2422 34.0396 43.298 34.2109C43.333 34.2715 43.3688 34.3325 43.3715 34.4048C43.2465 34.4087 43.1219 34.4062 42.9969 34.4082C42.9128 34.209 42.976 33.9854 42.9231 33.7803C42.9025 33.6963 42.8163 33.6445 42.7344 33.647C42.5306 33.6387 42.3258 33.6445 42.123 33.6445C42.1198 33.8989 42.1301 34.1543 42.1167 34.4082C42.0109 34.4062 41.9039 34.4062 41.7977 34.4087C41.792 33.7832 41.7958 33.1597 41.7958 32.5356ZM42.1224 32.8325C42.1228 33.0049 42.1228 33.1772 42.1224 33.3501C42.3044 33.3511 42.4868 33.3525 42.6696 33.3506C42.7601 33.3501 42.8654 33.333 42.9242 33.2554C42.9863 33.1572 42.985 33.0264 42.9292 32.9268C42.8821 32.8481 42.7828 32.8398 42.7013 32.835C42.5083 32.8286 42.3152 32.8325 42.1224 32.8325Z" fill="#FBF503" fill-opacity="1.000000" fill-rule="nonzero"/>
	</g>
</svg>
