<svg width="58.000000" height="50.268555" viewBox="0 0 58 50.2686" fill="none" xmlns="http://www.w3.org/2000/svg" xmlns:xlink="http://www.w3.org/1999/xlink">
	<desc>
			Created with Pixso.
	</desc>
	<defs/>
	<path d="M8.91321 8.19824C8.69336 8.36035 8.5708 8.61768 8.56982 8.88232L8.56982 8.89307C8.5708 9.00488 8.59314 9.11768 8.6394 9.22559L12.5503 18.3647C12.7235 18.77 13.1705 18.9683 13.5757 18.8203C16.1362 17.8784 25.0034 14.8984 30.7419 16.5059C30.7419 16.5059 24.9855 16.8491 19.7802 21.0596C19.4868 21.2974 19.389 21.7109 19.5393 22.0625C19.962 23.0474 20.8104 25.0273 21.2905 26.1465L21.9647 27.7778C22.1252 28.1646 22.6379 28.2114 22.8641 27.8608C24.0787 25.9741 26.1266 25.0317 28.0938 24.209C30.109 23.3672 32.2119 22.7388 34.3571 22.3647C36.6428 21.9658 38.9767 21.8594 41.2867 22.0703C41.6715 22.105 42.0286 21.8618 42.1434 21.4824L43.9102 15.6582C44.0142 15.3135 43.8945 14.937 43.6105 14.7251C41.6404 13.2534 33.8365 8.30859 20.1134 10.2949C20.1134 10.2949 31.8237 3.35645 46.6906 10.9785C47.141 11.21 47.6848 10.9668 47.8351 10.4731L49.3927 5.33691C49.417 5.25732 49.4287 5.17676 49.4302 5.09717L49.4302 5.07275C49.4258 4.78027 49.274 4.50293 49.0162 4.35205C47.1503 3.26318 40.8329 0 32.1428 0C25.4821 -0.000488281 17.4282 1.91602 8.91321 8.19824Z" fill="#FBF503" fill-opacity="1.000000" fill-rule="evenodd"/>
	<path d="M16.4225 50.2549L15.0117 50.2549C14.9052 50.2549 14.803 50.2114 14.7277 50.1333C14.6522 50.0557 14.61 49.9502 14.61 49.8398L14.61 41.4087L11.1542 41.4087C10.933 41.4077 10.7542 41.2222 10.7542 40.9937L10.7542 39.688C10.7542 39.4585 10.9341 39.2729 11.1559 39.2729L20.2806 39.2729C20.5026 39.2729 20.6824 39.4585 20.6824 39.688L20.6824 40.9937C20.6824 41.2231 20.5026 41.4087 20.2806 41.4087L16.8242 41.4087L16.8242 49.8398C16.8242 49.9502 16.7819 50.0557 16.7065 50.1333C16.6312 50.2114 16.5291 50.2549 16.4225 50.2549ZM9.82739 49.458C10.3445 48.9233 10.556 48.2437 10.556 47.1128L10.556 46.8247C10.556 45.6924 10.3445 45.0146 9.82739 44.479C9.27942 43.9121 8.55322 43.6812 7.32312 43.6812L2.85645 43.6812C2.67883 43.6812 2.50854 43.6084 2.38293 43.4785C2.25732 43.3486 2.18689 43.1724 2.18713 42.9888L2.18713 42.1006C2.18713 41.7188 2.48682 41.4087 2.85645 41.4087L9.25098 41.4087C9.4729 41.4087 9.65271 41.2231 9.65271 40.9937L9.65271 39.688C9.65271 39.4585 9.4729 39.2729 9.25098 39.2729L3.23291 39.2729C2.0022 39.2729 1.27661 39.5039 0.728027 40.0703C0.210815 40.605 0 41.2847 0 42.416L0 42.6431C0 43.7773 0.210815 44.4546 0.728027 44.9888C1.27661 45.5557 2.0022 45.7866 3.23291 45.7866L7.71582 45.7866C8.08557 45.7866 8.3855 46.0962 8.38586 46.4785L8.38586 47.4268C8.38586 47.8091 8.08582 48.1187 7.71582 48.1187L0.981201 48.1187C0.759277 48.1187 0.579346 48.3047 0.579346 48.5342L0.579346 49.8398C0.579346 49.9502 0.621704 50.0557 0.697021 50.1333C0.772461 50.2114 0.874634 50.2549 0.981201 50.2549L7.32495 50.2549C8.55383 50.2549 9.27942 50.0239 9.82739 49.458ZM41.7479 44.7334L41.7479 44.8091C41.7479 46.9253 41.4235 48.0103 40.507 48.957C39.6611 49.8311 38.402 50.2681 36.7562 50.2681L31.8892 50.2681C31.6672 50.2681 31.4873 50.0825 31.4873 49.853L31.4873 39.688C31.4873 39.4585 31.6672 39.2729 31.8892 39.2729L36.7581 39.2729C38.4038 39.2729 39.6653 39.7148 40.5088 40.5835C41.4253 41.5298 41.7479 42.6182 41.7479 44.7334ZM39.5342 44.7334C39.5342 43.3252 39.4479 42.6479 38.9131 42.0957C38.4757 41.6436 37.7706 41.4243 36.7562 41.4243L33.7017 41.4243L33.7017 48.1187L36.7581 48.1187C37.7725 48.1187 38.4781 47.8989 38.9149 47.4473C39.4497 46.8955 39.536 46.2173 39.536 44.8091L39.5342 44.7334ZM45.3391 49.8398L45.3391 39.688C45.3391 39.4585 45.1592 39.2729 44.9373 39.2729L43.5283 39.2729C43.3065 39.2729 43.1266 39.4585 43.1266 39.688L43.1266 49.8398C43.1266 50.0693 43.3065 50.2549 43.5283 50.2549L44.9391 50.2549C45.0457 50.2549 45.1478 50.2114 45.2231 50.1333C45.2986 50.0557 45.3408 49.9502 45.3408 49.8398L45.3391 49.8398ZM30.1902 50.2549L28.6979 50.2549C28.4885 50.2549 28.2985 50.1289 28.2109 49.9321L27.5247 48.3965L21.9862 48.3965L21.2987 49.9331C21.2117 50.1279 21.0232 50.2534 20.8153 50.2544L19.3158 50.2544C19.1776 50.2544 19.0491 50.1812 18.9755 50.0605C18.9019 49.9395 18.8934 49.7881 18.9532 49.6597L23.4845 39.9111C23.7213 39.4102 24.2137 39.0928 24.7533 39.0928C25.2928 39.0928 25.7853 39.4102 26.0221 39.9111L30.5533 49.6582C30.6139 49.7871 30.6061 49.939 30.5327 50.0601C30.4592 50.1812 30.3304 50.2549 30.192 50.2549L30.1902 50.2549ZM22.8906 46.3633L26.6226 46.3633L24.7605 41.9756L22.8906 46.3633ZM57.5977 50.2549L56.1023 50.2549C55.8928 50.2549 55.7026 50.1289 55.6154 49.9321L54.9302 48.3965L49.3918 48.3965L48.7048 49.9331C48.6174 50.1274 48.4293 50.2529 48.2216 50.2544L46.722 50.2544C46.5839 50.2544 46.4552 50.1812 46.3816 50.0605C46.308 49.9395 46.2997 49.7881 46.3595 49.6597L50.8907 39.9111C51.1272 39.4102 51.6198 39.0918 52.1595 39.0918C52.6993 39.0918 53.1918 39.4102 53.4282 39.9111L57.9595 49.6582C58.0201 49.7871 58.0123 49.939 57.9387 50.0605C57.8651 50.1816 57.7362 50.2554 57.5977 50.2549L57.5977 50.2549ZM50.2963 46.3633L54.0282 46.3633L52.1667 41.9756L50.2963 46.3633Z" fill="#FBF503" fill-opacity="1.000000" fill-rule="nonzero"/>
</svg>
