<svg width="24.000000" height="24.000000" viewBox="0 0 24 24" fill="none" xmlns="http://www.w3.org/2000/svg" xmlns:xlink="http://www.w3.org/1999/xlink">
	<desc>
			Created with Pixso.
	</desc>
	<defs/>
	<path d="M21.3334 0L2.66663 0C1.18665 0 0 1.19995 0 2.66675L0 21.3333C0 22.8 1.18665 24 2.66663 24L21.3334 24C22.8 24 24 22.8 24 21.3333L24 2.66675C24 1.19995 22.8134 0 21.3334 0ZM21.3334 21.3333L2.66663 21.3333L2.66663 5.33325L21.3334 5.33325L21.3334 21.3333ZM18.6666 12L5.33337 12L5.33337 9.33325L18.6666 9.33325L18.6666 12ZM13.3334 17.3333L5.33337 17.3333L5.33337 14.6667L13.3334 14.6667L13.3334 17.3333Z" fill="#F8F200" fill-opacity="1.000000" fill-rule="nonzero"/>
</svg>
