<svg width="30.000000" height="30.000000" viewBox="0 0 30 30" fill="none" xmlns="http://www.w3.org/2000/svg" xmlns:xlink="http://www.w3.org/1999/xlink">
	<desc>
			Created with Pixso.
	</desc>
	<defs>
		<clipPath id="clip12_226">
			<rect id="twitter-square logo" width="30.000000" height="30.000000" fill="white" fill-opacity="0"/>
		</clipPath>
	</defs>
	<rect id="twitter-square logo" width="30.000000" height="30.000000" fill="#FFFFFF" fill-opacity="0"/>
	<g clip-path="url(#clip12_226)">
		<path id="Vector" d="M26.7858 0L3.21423 0C1.4397 0 0 1.43973 0 3.21428L0 26.7857C0 28.5603 1.4397 30 3.21423 30L26.7858 30C28.5603 30 30 28.5603 30 26.7857L30 3.21428C30 1.43973 28.5603 0 26.7858 0ZM23.5111 10.6339C23.5245 10.8214 23.5245 11.0156 23.5245 11.2031C23.5245 17.0089 19.1049 23.6987 11.0291 23.6987C8.53796 23.6987 6.22766 22.9754 4.28577 21.7299C4.64062 21.7701 4.98218 21.7835 5.34375 21.7835C7.39954 21.7835 9.28796 21.0871 10.7947 19.9085C8.86609 19.8683 7.24548 18.6027 6.6897 16.8616C7.36609 16.9621 7.97546 16.9621 8.67188 16.7812C6.66296 16.3728 5.15625 14.6049 5.15625 12.4688L5.15625 12.4152C5.73889 12.7433 6.42188 12.9442 7.13843 12.971C6.53601 12.5703 6.04224 12.0267 5.70093 11.3887C5.35974 10.7507 5.18188 10.0382 5.18298 9.31473C5.18298 8.49777 5.39734 7.74777 5.77905 7.09822C7.94202 9.7634 11.1897 11.5045 14.8326 11.692C14.2098 8.71205 16.4397 6.29465 19.1183 6.29465C20.3839 6.29465 21.5223 6.82365 22.3259 7.6808C23.317 7.4933 24.2678 7.125 25.1116 6.62277C24.7834 7.64062 24.0938 8.49777 23.183 9.04018C24.067 8.94643 24.9241 8.69867 25.7142 8.35715C25.1183 9.23438 24.3683 10.0112 23.5111 10.6339Z" fill="#000000" fill-opacity="1.000000" fill-rule="nonzero"/>
	</g>
</svg>
