<svg width="30.000000" height="30.000061" viewBox="0 0 30 30.0001" fill="none" xmlns="http://www.w3.org/2000/svg" xmlns:xlink="http://www.w3.org/1999/xlink">
	<desc>
			Created with Pixso.
	</desc>
	<defs/>
	<path id="Vector" d="M5.47778 0C2.44336 0 0 2.44334 0 5.47781L0 24.5222C0 27.5567 2.44336 30 5.47778 30L15.7997 30L15.7997 18.2719L12.6985 18.2719L12.6985 14.0494L15.7997 14.0494L15.7997 10.4419C15.7997 7.60764 17.6321 5.00533 21.8531 5.00533C23.5621 5.00533 24.8259 5.16939 24.8259 5.16939L24.7266 9.11253C24.7266 9.11253 23.4376 9.10036 22.0312 9.10036C20.509 9.10036 20.265 9.8017 20.265 10.966L20.265 14.0494L24.8475 14.0494L24.6478 18.2719L20.265 18.2719L20.265 30.0001L24.5222 30.0001C27.5566 30.0001 30 27.5567 30 24.5222L30 5.47784C30 2.44337 27.5566 3.05176e-05 24.5222 3.05176e-05L5.47778 3.05176e-05L5.47778 0Z" fill="#000000" fill-opacity="1.000000" fill-rule="nonzero"/>
</svg>
