<svg width="30.000000" height="30.000000" viewBox="0 0 30 30" fill="none" xmlns="http://www.w3.org/2000/svg" xmlns:xlink="http://www.w3.org/1999/xlink">
	<desc>
			Created with Pixso.
	</desc>
	<defs>
		<clipPath id="clip12_222">
			<rect id="vk logo" width="30.000000" height="30.000000" fill="white" fill-opacity="0"/>
		</clipPath>
	</defs>
	<rect id="vk logo" width="30.000000" height="30.000000" fill="#FFFFFF" fill-opacity="0"/>
	<g clip-path="url(#clip12_222)">
		<path id="Vector" d="M19.605 0L10.395 0C1.98999 0 0 1.99001 0 10.395L0 19.605C0 28.01 1.98999 30 10.395 30L19.605 30C28.01 30 30 28.01 30 19.605L30 10.395C30 1.99001 27.9888 0 19.605 0ZM24.22 21.4037L22.04 21.4037C21.215 21.4037 20.96 20.7475 19.4775 19.245C18.1863 17.995 17.615 17.8262 17.2975 17.8262C16.8525 17.8262 16.725 17.9538 16.725 18.5675L16.725 20.5363C16.725 21.0663 16.5563 21.3838 15.1587 21.3838C12.8512 21.3838 10.2887 19.9863 8.48999 17.3813C5.78003 13.5712 5.03748 10.7125 5.03748 10.12C5.03748 9.80251 5.16504 9.50626 5.77881 9.50626L7.95874 9.50626C8.50879 9.50626 8.72119 9.75999 8.93372 10.3525C10.0125 13.465 11.8125 16.1962 12.5537 16.1962C12.8287 16.1962 12.9563 16.0688 12.9563 15.3712L12.9563 12.1512C12.8712 10.6687 12.0875 10.5425 12.0875 10.0137C12.0875 9.75874 12.3 9.505 12.6375 9.505L16.0675 9.505C16.5337 9.505 16.7025 9.75874 16.7025 10.3087L16.7025 14.65C16.7025 15.115 16.915 15.285 17.0413 15.285C17.3163 15.285 17.55 15.115 18.0575 14.6075C19.625 12.85 20.7462 10.14 20.7462 10.14C20.895 9.82249 21.1488 9.52625 21.7 9.52625L23.88 9.52625C24.5363 9.52625 24.6851 9.86375 24.5363 10.33C24.2612 11.6013 21.5938 15.3687 21.5938 15.3687C21.3612 15.75 21.2762 15.9187 21.5938 16.3438C21.8263 16.6613 22.5887 17.3175 23.0975 17.91C24.0288 18.9688 24.7476 19.8575 24.9387 20.4725C25.1512 21.085 24.8325 21.4025 24.2188 21.4025L24.22 21.4037Z" fill="#000000" fill-opacity="1.000000" fill-rule="nonzero"/>
	</g>
</svg>
