<svg width="178.000000" height="35.187988" viewBox="0 0 178 35.188" fill="none" xmlns="http://www.w3.org/2000/svg" xmlns:xlink="http://www.w3.org/1999/xlink">
	<desc>
			Created with Pixso.
	</desc>
	<defs>
		<clipPath id="clip15_59">
			<rect width="178.000000" height="35.187801" fill="white" fill-opacity="0"/>
		</clipPath>
	</defs>
	<rect width="178.000000" height="35.187801" fill="#FFFFFF" fill-opacity="0"/>
	<g clip-path="url(#clip15_59)">
		<path d="M113.88 28.4248L107.086 19.2734L100.299 28.4248L97.5027 28.4248L105.671 17.3682L98.2109 7.31787L101.007 7.31787L107.086 15.5146L113.164 7.31787L115.958 7.31787L108.504 17.3662L116.674 28.4248L113.88 28.4248ZM60.9359 28.4209L52.7584 17.3662L60.2183 7.31787L57.4222 7.31787L51.3418 15.5166L45.2668 7.31787L42.4783 7.31787L49.9344 17.3662L41.7588 28.4209L44.5586 28.4209L51.3455 19.2734L58.1381 28.4209L60.9359 28.4209Z" fill="#FBF503" fill-opacity="1.000000" fill-rule="nonzero"/>
		<path d="M76.4836 18.1655C76.0624 17.8091 75.5931 17.5127 75.0894 17.2852C75.8623 16.8774 76.5088 16.2686 76.9594 15.5239C77.4099 14.7793 77.6476 13.9268 77.6469 13.0581C77.6469 11.7075 77.1454 7.31592 70.7332 7.31592L62.0972 7.31592L62.0972 16.4155L59.2209 16.4155C58.8481 16.8984 58 18.0581 57.6775 18.5337L62.0972 18.5337L62.0972 28.4209L70.735 28.4229C75.4137 28.4229 78.3198 26.0664 78.3198 22.2612C78.3198 20.6001 77.6879 19.1885 76.4836 18.1655ZM64.485 9.51953L70.735 9.51953C72.4257 9.51953 75.259 9.9375 75.259 12.873C75.259 15.0928 73.6094 16.4155 70.735 16.4155L64.485 16.4155L64.485 9.51953ZM70.7332 26.2217L64.483 26.2217L64.483 18.5391L70.7332 18.5391C73.1023 18.5391 75.9375 19.1885 75.9375 22.2148C75.9375 25.6997 72.6774 26.2217 70.7332 26.2217ZM89.5543 6.83154C83.5801 6.83154 79.4047 11.3652 79.4047 17.8584C79.4047 24.3608 83.5801 28.8911 89.5543 28.8911C95.5229 28.8911 99.6871 24.3608 99.6871 17.8584C99.6871 11.3652 95.5229 6.83154 89.5543 6.83154ZM89.5543 26.6582C85.0023 26.6582 81.813 23.0381 81.813 17.8584C81.813 12.6787 85.0023 9.06055 89.5543 9.06055C94.0988 9.06055 97.2695 12.6787 97.2695 17.8584C97.2695 23.0381 94.0988 26.6582 89.5543 26.6582ZM5.29639 5.05957L5.27954 5.07422L5.27954 5.07617C3.60681 6.71045 2.27905 8.65918 1.37366 10.8081C0.46814 12.9575 0.0032959 15.2642 0.00622559 17.5938C0.000976562 21.4448 1.27454 25.1904 3.62988 28.251C3.65417 28.2803 3.69141 28.2969 3.72498 28.2803C3.75671 28.2622 3.75854 28.2231 3.74548 28.1899C2.39404 24.0425 9.30212 13.9902 12.8718 9.77637C12.8829 9.76172 12.8978 9.74512 12.8978 9.72461C12.8978 9.70068 12.8811 9.68213 12.8644 9.66748C6.86023 3.73682 5.2572 5.09277 5.27954 5.07422L5.29639 5.05957ZM30.1737 5.05957L30.1906 5.07422L30.1906 5.07617C31.863 6.71045 33.1907 8.65918 34.0957 10.8086C35.0009 12.9575 35.4653 15.2646 35.4619 17.5938C35.4673 21.4448 34.1937 25.1904 31.8383 28.251C31.8159 28.2803 31.7767 28.2969 31.7433 28.2803C31.7134 28.2622 31.7115 28.2231 31.7228 28.1899C33.0741 24.0425 26.1716 13.9829 22.6039 9.76709C22.5908 9.75244 22.5778 9.73584 22.5778 9.71729C22.5778 9.69141 22.5927 9.67285 22.6113 9.6582C28.6173 3.72754 30.2091 5.09277 30.1886 5.07422L30.1737 5.05957ZM17.735 0C21.3121 0 24.2554 0.973145 26.9695 2.5752C27.0031 2.5918 27.0123 2.62842 26.9993 2.66211C26.9862 2.69336 26.949 2.70068 26.9136 2.69141C23.4818 1.95508 18.2644 4.89844 17.7723 5.19238C17.7611 5.19971 17.75 5.20752 17.735 5.20752C17.7183 5.20752 17.707 5.19971 17.6959 5.19238C16.3873 4.44727 11.5651 1.93848 8.52856 2.70996C8.495 2.71729 8.45776 2.71191 8.44287 2.67871C8.43652 2.66309 8.43604 2.64551 8.44153 2.62939C8.4469 2.61377 8.45801 2.6001 8.47266 2.5918C11.1866 0.973145 14.1672 0 17.735 0ZM17.735 14.1108C17.7555 14.1108 17.778 14.1274 17.791 14.1382C23.0959 18.1416 32.1757 28.0381 29.4039 30.8369L29.4076 30.833L29.4058 30.8369L29.402 30.8369C26.1752 33.6479 22.0267 35.1953 17.7332 35.1895C13.4391 35.1948 9.29028 33.6475 6.0625 30.8369L6.05872 30.833L6.0625 30.8369C3.29626 28.0381 12.3741 18.1416 17.6736 14.1382C17.6885 14.1274 17.7126 14.1108 17.735 14.1108ZM157.948 7.31787L157.948 24.6382L145.091 7.30518L142.983 7.30127L142.983 28.3896L145.35 28.3896L145.35 11.4526L157.944 28.4023L160.317 28.4062L160.317 7.31787L157.948 7.31787ZM130.693 6.82764C124.719 6.82764 120.542 11.3638 120.542 17.8545C120.542 24.3569 124.719 28.8945 130.693 28.8945C136.662 28.8945 140.826 24.3569 140.826 17.8545C140.826 11.3652 136.662 6.82764 130.693 6.82764ZM130.693 26.6582C126.141 26.6582 122.952 23.0381 122.952 17.8545C122.952 12.6772 126.141 9.05664 130.693 9.05664C135.238 9.05664 138.409 12.6772 138.409 17.8545C138.409 23.0381 135.238 26.6582 130.693 26.6582ZM165.355 26.3418L165.355 18.5391L177.056 18.5391L177.056 16.4746L165.355 16.4746L165.355 9.36572L177.85 9.36572L177.85 7.30322L162.975 7.30322L162.975 28.4062L177.997 28.4062L177.997 26.3418L165.355 26.3418Z" fill="#FBF503" fill-opacity="1.000000" fill-rule="nonzero"/>
	</g>
</svg>
