<svg width="30.000000" height="30.000000" viewBox="0 0 30 30" fill="none" xmlns="http://www.w3.org/2000/svg" xmlns:xlink="http://www.w3.org/1999/xlink">
	<desc>
			Created with Pixso.
	</desc>
	<defs>
		<clipPath id="clip12_220">
			<rect id="youtube logo" width="30.000000" height="30.000000" fill="white" fill-opacity="0"/>
		</clipPath>
	</defs>
	<rect id="youtube logo" width="30.000000" height="30.000000" fill="#FFFFFF" fill-opacity="0"/>
	<g clip-path="url(#clip12_220)">
		<path id="YouTube" d="M23.6576 22.3834L22.1127 22.3834L22.1199 21.4792C22.1199 21.0774 22.4473 20.7487 22.8475 20.7487L22.946 20.7487C23.347 20.7487 23.6754 21.0774 23.6754 21.4792L23.6576 22.3834ZM17.8636 20.4459C17.4718 20.4459 17.1512 20.7112 17.1512 21.0361L17.1512 25.4334C17.1512 25.7577 17.4718 26.0225 17.8636 26.0225C18.2571 26.0225 18.5779 25.7577 18.5779 25.4334L18.5779 21.0361C18.5779 20.7109 18.2571 20.4459 17.8636 20.4459ZM27.2727 17.9861L27.2727 26.3515C27.2727 28.358 25.5458 30 23.4355 30L7.65564 30C5.54431 30 3.81812 28.358 3.81812 26.3515L3.81812 17.9861C3.81812 15.9795 5.54431 14.3373 7.65564 14.3373L23.4355 14.3373C25.5458 14.3373 27.2727 15.9795 27.2727 17.9861ZM8.70825 27.2598L8.70703 18.4478L10.6631 18.4484L10.6631 17.1427L5.44873 17.1349L5.44873 18.4185L7.07642 18.4232L7.07642 27.2598L8.70825 27.2598ZM14.5719 19.7604L12.941 19.7604L12.941 24.4659C12.941 25.1467 12.9819 25.487 12.9385 25.6071C12.8059 25.972 12.2098 26.3594 11.9775 25.6465C11.9381 25.5217 11.9728 25.1451 11.9722 24.4984L11.9656 19.7604L10.3438 19.7604L10.3488 24.4237C10.3501 25.1385 10.3329 25.6717 10.3544 25.914C10.3942 26.3417 10.3801 26.8406 10.7738 27.1252C11.5074 27.6581 12.9138 27.0458 13.2656 26.2843L13.2625 27.256L14.5721 27.2575L14.5721 19.7604L14.5719 19.7604ZM19.7891 25.1489L19.7856 21.2325C19.7844 19.7399 18.6764 18.8458 17.1722 20.0535L17.1787 17.1418L15.5494 17.1443L15.5416 27.1945L16.8811 27.1747L17.0031 26.5488C18.7155 28.1318 19.7916 27.0473 19.7891 25.1489ZM24.8931 24.6298L23.67 24.6364C23.6694 24.6853 23.6678 24.7417 23.6672 24.8031L23.6672 25.4908C23.6672 25.8586 23.3655 26.1583 22.9989 26.1583L22.7594 26.1583C22.3922 26.1583 22.0908 25.8586 22.0908 25.4908L22.0908 25.4145L22.0908 24.6582L22.0908 23.6821L24.891 23.6821L24.891 22.6201C24.891 21.8439 24.8712 21.068 24.8074 20.6242C24.6073 19.2206 22.6521 18.9977 21.6646 19.7163C21.3542 19.9407 21.1176 20.241 20.98 20.6447C20.8408 21.0484 20.772 21.5999 20.772 22.3005L20.772 24.6355C20.7723 28.5175 25.4513 27.9688 24.8931 24.6298ZM18.6205 11.9519C18.7046 12.158 18.8353 12.325 19.0126 12.4511C19.1877 12.5753 19.412 12.6377 19.6799 12.6377C19.9152 12.6377 20.1234 12.5737 20.3048 12.4416C20.4856 12.3102 20.6378 12.1139 20.762 11.852L20.7313 12.4968L22.5492 12.4968L22.5492 4.70593L21.1182 4.70593L21.1182 10.7694C21.1182 11.0978 20.8499 11.3667 20.5219 11.3667C20.1957 11.3667 19.9264 11.0978 19.9264 10.7694L19.9264 4.70593L18.4329 4.70593L18.4329 9.96077C18.4329 10.6301 18.4447 11.0764 18.4644 11.3027C18.4854 11.5274 18.5363 11.743 18.6205 11.9519ZM13.1115 7.55174C13.1115 6.80389 13.1733 6.21991 13.2963 5.79887C13.42 5.37941 13.6425 5.04219 13.9646 4.78787C14.2858 4.53227 14.697 4.40433 15.197 4.40433C15.6177 4.40433 15.9779 4.48753 16.2791 4.65047C16.5814 4.81435 16.8145 5.02707 16.9764 5.28958C17.1412 5.55305 17.2532 5.82378 17.3129 6.10078C17.3739 6.38159 17.4039 6.80515 17.4039 7.37653L17.4039 9.34685C17.4039 10.0695 17.3751 10.6012 17.3195 10.9387C17.2642 11.2771 17.1453 11.591 16.9614 11.8854C16.7798 12.1766 16.5455 12.3944 16.2615 12.5333C15.9745 12.6736 15.6461 12.7423 15.2751 12.7423C14.8608 12.7423 14.5118 12.6846 14.2241 12.5642C13.9354 12.4445 13.7125 12.2639 13.5536 12.0241C13.3932 11.7839 13.2803 11.4915 13.2122 11.1505C13.1437 10.8098 13.1111 10.2973 13.1111 9.61441L13.1111 7.55174L13.1115 7.55174ZM14.5353 10.6465C14.5353 11.0877 14.8611 11.448 15.2579 11.448C15.6552 11.448 15.9795 11.0877 15.9795 10.6465L15.9795 6.49915C15.9795 6.05856 15.6552 5.69833 15.2579 5.69833C14.8611 5.69833 14.5353 6.05856 14.5353 6.49915L14.5353 10.6465ZM9.50415 12.7407L11.2191 12.7407L11.2209 6.76544L13.2474 1.64676L11.3717 1.64676L10.2944 5.44875L9.20166 1.63635L7.34534 1.63635L9.50134 6.76828L9.50415 12.7407Z" fill="#000000" fill-opacity="1.000000" fill-rule="nonzero"/>
	</g>
</svg>
